<?xml version="1.0" standalone="no"?>
<!DOCTYPE svg PUBLIC "-//W3C//DTD SVG 20010904//EN"
 "http://www.w3.org/TR/2001/REC-SVG-20010904/DTD/svg10.dtd">
<svg version="1.0" xmlns="http://www.w3.org/2000/svg"
 width="1280.000000pt" height="1280.000000pt" viewBox="0 0 1280.000000 1280.000000"
 preserveAspectRatio="xMidYMid meet">
<metadata>
Created by potrace 1.14, written by Peter Selinger 2001-2017
</metadata>
<g transform="translate(0.000000,1280.000000) scale(0.100000,-0.100000)"
fill="#000000" stroke="none">
<path d="M5677 12613 c9 -31 9 -156 1 -188 -15 -61 -31 -110 -48 -150 -11 -25
-20 -47 -20 -50 0 -3 -61 -125 -134 -272 -164 -327 -198 -399 -230 -500 -68
-217 -52 -359 51 -454 81 -74 191 -108 368 -114 l120 -4 6 -31 c4 -17 18 -53
32 -80 l26 -49 -134 3 c-73 2 -138 6 -144 10 -6 4 -31 10 -56 13 -54 6 -85
-14 -85 -56 0 -15 -6 -35 -14 -46 -7 -11 -26 -56 -41 -99 -52 -152 -33 -274
67 -438 28 -46 66 -107 85 -137 46 -76 74 -155 80 -226 6 -76 31 -183 83 -360
36 -121 45 -159 53 -210 1 -5 -9 -11 -23 -12 -14 -1 -54 -4 -90 -8 -36 -4 -87
-8 -115 -9 -27 -2 -72 -6 -100 -10 -27 -3 -75 -8 -105 -11 -71 -8 -126 -14
-172 -21 -36 -5 -39 -3 -65 42 -44 72 -299 404 -343 444 -3 3 -28 32 -55 65
-28 33 -55 66 -62 72 -27 30 -152 201 -176 243 -54 94 -68 152 -76 338 -2 36
-14 25 -51 -46 -19 -37 -38 -69 -42 -72 -7 -6 -135 -259 -138 -272 0 -4 -15
-38 -31 -75 -77 -169 -169 -453 -195 -600 -2 -13 -6 -35 -9 -50 -11 -65 -17
-123 -18 -197 -2 -76 -3 -79 -27 -83 -14 -2 -47 -8 -75 -13 -27 -5 -63 -12
-80 -15 -16 -3 -40 -7 -51 -9 -12 -2 -37 -7 -55 -10 -19 -3 -59 -10 -89 -16
-53 -11 -64 -13 -140 -26 -19 -3 -44 -8 -55 -10 -11 -2 -47 -8 -80 -13 -85
-14 -113 -20 -175 -36 -73 -19 -231 -70 -272 -88 -18 -8 -58 -25 -88 -37 -30
-12 -90 -40 -134 -61 -43 -22 -83 -39 -89 -39 -21 0 2 148 43 270 56 171 62
195 65 270 4 108 -27 203 -99 298 -23 30 -50 70 -62 90 -26 47 -59 60 -105 39
-79 -36 -206 -73 -276 -81 -40 -4 -42 -3 -32 15 6 11 12 48 14 82 3 61 4 62
37 70 248 60 363 120 421 219 80 138 40 298 -138 543 -60 83 -283 357 -305
375 -46 38 -290 371 -290 397 0 4 -7 20 -14 35 -13 25 -29 144 -35 263 -2 39
-173 -281 -259 -485 -256 -611 -285 -1046 -82 -1251 53 -53 149 -104 215 -114
22 -4 56 -10 75 -14 19 -4 51 -6 71 -3 49 5 53 -3 63 -120 l5 -56 -62 -9 c-35
-5 -76 -5 -96 0 -30 8 -143 3 -160 -7 -3 -2 -35 -7 -71 -10 -36 -3 -78 -9 -95
-11 -16 -3 -43 -7 -60 -9 -47 -5 -85 -27 -85 -49 0 -10 -18 -40 -41 -65 -116
-132 -132 -272 -54 -457 9 -22 47 -101 85 -175 89 -177 112 -244 126 -360 3
-25 7 -52 9 -60 2 -8 7 -31 10 -50 3 -19 10 -51 15 -70 19 -70 14 -85 -42
-126 -139 -100 -333 -288 -427 -414 -88 -116 -151 -229 -158 -280 -3 -26 -23
-139 -30 -175 -16 -85 -36 -184 -39 -205 -3 -14 -7 -33 -10 -43 -3 -10 -7 -32
-10 -50 -9 -71 -14 -103 -18 -122 -21 -109 -27 -365 -10 -450 20 -98 22 -107
51 -163 36 -71 118 -145 185 -168 29 -10 56 -17 59 -17 3 1 7 -132 8 -295 6
-882 6 -1004 1 -1012 -3 -5 -19 -12 -35 -15 -79 -19 -160 -89 -197 -170 -18
-42 -22 -69 -24 -165 -1 -63 -4 -133 -8 -155 -3 -22 -8 -67 -11 -100 -3 -33
-7 -69 -9 -80 -16 -83 -27 -390 -16 -440 7 -33 5 -36 -77 -106 -263 -226 -416
-465 -471 -734 -9 -41 -8 -242 1 -289 11 -59 18 -89 24 -106 3 -8 8 -23 10
-33 9 -48 142 -293 172 -317 3 -3 24 -27 46 -55 111 -139 289 -292 500 -431
106 -69 140 -90 230 -138 11 -6 22 -13 25 -16 6 -7 300 -152 365 -180 28 -12
64 -27 80 -35 150 -66 642 -244 718 -259 35 -8 73 -20 82 -26 6 -4 24 -10 40
-13 17 -3 71 -17 120 -31 221 -64 642 -163 845 -200 14 -2 63 -11 110 -20 47
-9 101 -19 120 -22 19 -3 43 -7 53 -10 10 -3 30 -7 45 -9 15 -2 72 -11 127
-20 108 -17 129 -21 190 -30 22 -3 51 -8 65 -10 14 -2 46 -6 72 -9 26 -3 62
-8 80 -11 136 -19 189 -25 233 -29 28 -3 72 -8 98 -11 54 -7 111 -12 202 -20
33 -3 75 -8 93 -10 19 -3 68 -8 110 -11 43 -2 97 -7 122 -9 76 -6 211 -16 285
-20 39 -2 118 -6 176 -10 110 -6 305 -16 327 -16 6 1 24 0 40 0 15 -1 279 -1
587 -2 595 0 737 4 1120 28 50 3 119 8 155 10 66 4 146 10 255 21 108 10 159
15 215 19 30 2 55 4 55 5 0 1 14 3 30 4 55 5 166 17 183 21 9 1 49 6 87 9 39
4 77 9 85 11 8 2 40 6 70 10 54 5 78 9 150 21 19 3 51 8 70 10 45 5 75 9 130
18 25 4 57 9 73 12 64 10 95 15 142 24 28 6 64 12 80 15 17 2 56 9 87 15 31 6
70 13 85 15 15 2 46 9 68 14 38 9 58 13 130 26 94 17 467 107 660 159 273 74
679 208 850 280 17 7 97 41 179 76 765 323 1267 751 1398 1193 28 92 31 116
32 242 0 115 -4 155 -22 224 -37 138 -119 295 -222 423 -68 84 -243 252 -333
318 -26 19 -60 45 -75 58 -15 12 -35 25 -44 28 -10 3 -18 9 -18 14 0 4 -8 10
-17 14 -10 3 -36 19 -58 35 l-40 29 -1 239 c0 131 3 245 7 253 34 63 114 299
125 365 2 16 8 54 13 82 25 159 -22 300 -118 353 l-36 21 0 454 0 453 24 32
c12 18 24 37 26 43 1 7 10 29 19 49 9 21 23 64 32 95 20 75 20 78 29 143 3 30
9 67 11 82 2 16 6 76 9 135 2 60 7 119 9 133 27 128 38 343 23 463 -5 39 -10
81 -11 92 -8 78 -49 206 -98 312 -23 49 -96 174 -107 183 -3 3 -25 30 -48 60
-110 145 -284 294 -496 426 -84 52 -225 115 -367 164 -36 12 -68 25 -71 29 -6
5 -17 117 -24 244 -3 54 21 199 60 362 56 234 34 371 -76 484 -23 23 -60 54
-80 68 -21 14 -41 34 -44 44 -8 24 -32 36 -70 33 -16 -1 -57 -5 -90 -7 -33 -3
-107 -8 -165 -12 -63 -4 -121 -14 -145 -24 -22 -10 -69 -19 -105 -20 l-65 -2
-3 58 c-2 31 -4 59 -6 60 -10 11 -52 11 -65 0 -14 -11 -14 -10 -2 5 8 11 22
16 37 14 18 -4 24 0 24 14 0 14 11 22 43 30 177 46 274 111 332 222 103 196
46 466 -182 868 -56 100 -242 365 -325 465 -94 113 -258 291 -258 281 0 -3 7
-50 16 -104 22 -133 22 -149 9 -214 -19 -88 -46 -152 -186 -435 -72 -145 -129
-264 -127 -265 2 -2 -7 -17 -20 -35 -12 -17 -22 -34 -22 -38 0 -6 -20 -55 -61
-150 -13 -30 -36 -106 -43 -140 -4 -16 -9 -41 -11 -55 -33 -162 34 -309 169
-370 107 -48 176 -61 333 -63 l70 -1 18 -55 c9 -31 24 -64 33 -74 8 -9 13 -20
9 -23 -14 -14 -243 -4 -314 14 -58 15 -89 1 -96 -43 -3 -16 -23 -68 -43 -115
-35 -78 -38 -93 -38 -180 -1 -130 22 -195 130 -360 23 -36 41 -66 39 -68 -1
-1 -27 7 -56 19 -76 30 -270 99 -294 104 -11 2 -54 15 -95 29 -98 32 -276 85
-390 115 l-45 12 -1 79 c-1 86 0 85 -63 210 -44 89 -109 184 -201 290 -12 14
-31 36 -42 50 -12 14 -49 57 -82 95 -52 60 -79 89 -161 179 -48 51 -161 195
-199 251 -58 87 -83 154 -92 247 -4 40 -8 82 -10 93 -1 11 -3 29 -3 40 -2 25
-113 -181 -181 -335 -67 -149 -65 -145 -90 -215 -11 -33 -25 -69 -30 -80 -44
-99 -118 -405 -135 -567 -8 -69 -12 -81 -25 -73 -5 3 -26 8 -47 10 -95 11
-127 16 -134 20 -4 3 -79 5 -168 6 -88 0 -163 4 -165 8 -9 15 -38 447 -40 591
0 99 6 153 34 270 45 187 51 222 52 292 2 144 -52 251 -171 336 -25 18 -52 45
-62 62 -17 27 -21 29 -76 25 -32 -2 -103 -6 -158 -10 -154 -8 -207 -15 -237
-31 -37 -19 -158 -30 -158 -14 0 6 -6 8 -12 4 -10 -5 -10 -4 -1 6 7 8 8 22 3
41 -5 16 -7 39 -5 50 3 14 0 19 -9 16 -7 -3 -13 1 -13 9 0 7 4 11 9 8 4 -3 8
0 8 5 0 6 -6 11 -12 11 -21 1 15 19 48 24 105 19 221 79 287 150 30 31 75 113
80 143 1 10 5 23 8 28 3 6 6 48 7 95 2 73 -6 129 -32 239 -17 72 -95 248 -176
396 -28 53 -190 304 -212 330 -5 6 -36 45 -68 88 -61 81 -87 112 -169 205 -43
49 -49 52 -94 52 -47 0 -47 0 -40 -27z m306 -1728 c-3 -9 -8 -14 -10 -11 -3 3
-2 9 2 15 9 16 15 13 8 -4z m24 -2 c-4 -3 -1 -13 6 -22 11 -14 10 -14 -5 -2
-16 12 -16 31 -1 31 4 0 3 -3 0 -7z m-72 -23 c3 -6 -1 -7 -9 -4 -18 7 -21 14
-7 14 6 0 13 -4 16 -10z m56 -17 c13 -16 12 -17 -3 -4 -10 7 -18 15 -18 17 0
8 8 3 21 -13z m-22 -16 c8 -10 7 -14 -2 -14 -8 0 -14 6 -14 14 0 7 1 13 2 13
2 0 8 -6 14 -13z m57 -33 c1 -9 0 -13 -4 -10 -3 4 -7 14 -8 22 -1 9 0 13 4 10
3 -4 7 -14 8 -22z m-51 -14 c-3 -5 -12 -10 -18 -10 -7 0 -6 4 3 10 19 12 23
12 15 0z m-4120 -1238 c5 -14 4 -14 -13 1 -10 9 -22 14 -27 10 -4 -5 -5 -3 -1
4 8 15 32 7 41 -15z m32 21 c-4 -3 -2 -11 3 -18 7 -8 5 -12 -4 -12 -8 0 -12 7
-11 16 5 22 4 21 12 21 3 0 3 -3 0 -7z m-61 -49 c1 -9 0 -13 -4 -10 -3 4 -7
14 -8 22 -1 9 0 13 4 10 3 -4 7 -14 8 -22z m45 -31 c13 -16 12 -17 -3 -4 -10
7 -18 15 -18 17 0 8 8 3 21 -13z m8240 0 c13 -16 12 -17 -3 -4 -10 7 -18 15
-18 17 0 8 8 3 21 -13z m-8263 -18 c16 -19 16 -19 -3 -3 -11 8 -28 14 -37 13
-10 -2 -20 0 -23 4 -10 17 46 4 63 -14z m8203 12 c-6 -8 -9 -16 -6 -19 3 -2
-2 -5 -10 -5 -13 0 -13 3 2 19 19 21 31 25 14 5z m43 -15 c2 -4 -4 -8 -14 -8
-10 0 -16 4 -14 8 3 4 9 8 14 8 5 0 11 -4 14 -8z m-8266 -27 c-3 -3 -9 2 -12
12 -6 14 -5 15 5 6 7 -7 10 -15 7 -18z m8232 -11 c0 -8 -19 -13 -24 -6 -3 5 1
9 9 9 8 0 15 -2 15 -3z m35 -4 c3 -6 -1 -7 -9 -4 -18 7 -21 14 -7 14 6 0 13
-4 16 -10z m-8265 -4 c0 -2 -8 -10 -17 -17 -16 -13 -17 -12 -4 4 13 16 21 21
21 13z"/>
</g>
</svg>
